<svg xmlns="http://www.w3.org/2000/svg" viewBox="0 0 64 64" role="img" aria-label="Rose Briefing">
  <defs>
    <linearGradient id="bg" x1="10" y1="8" x2="54" y2="58" gradientUnits="userSpaceOnUse">
      <stop stop-color="#fff1f7"/>
      <stop offset=".52" stop-color="#eef0ff"/>
      <stop offset="1" stop-color="#e0f7ff"/>
    </linearGradient>
    <linearGradient id="rose" x1="22" y1="14" x2="44" y2="44" gradientUnits="userSpaceOnUse">
      <stop stop-color="#fb7185"/>
      <stop offset=".5" stop-color="#e11d48"/>
      <stop offset="1" stop-color="#7c3aed"/>
    </linearGradient>
    <filter id="shadow" x="6" y="6" width="52" height="52" color-interpolation-filters="sRGB">
      <feDropShadow dx="0" dy="4" stdDeviation="4" flood-color="#4f46e5" flood-opacity=".22"/>
    </filter>
  </defs>
  <rect width="64" height="64" rx="18" fill="#111318"/>
  <rect x="5" y="5" width="54" height="54" rx="15" fill="url(#bg)"/>
  <g filter="url(#shadow)">
    <path d="M32 47c-9-5-15-12-15-20 0-6 5-11 11-11 3 0 5 1 7 4 2-3 5-5 9-5 5 0 9 4 9 10 0 10-11 17-21 22Z" fill="url(#rose)"/>
    <path d="M22 31c7-1 14-6 22-15 1 11-5 22-19 27-2-3-3-7-3-12Z" fill="#fff" opacity=".62"/>
    <path d="M25 28c4-1 9-4 14-10 0 7-4 13-12 16-1-2-2-4-2-6Z" fill="#fff" opacity=".8"/>
  </g>
  <path d="M18 47h28" stroke="#111318" stroke-width="3" stroke-linecap="round" opacity=".82"/>
  <path d="M21 51h17" stroke="#4f46e5" stroke-width="3" stroke-linecap="round" opacity=".82"/>
</svg>
